<?xml version="1.0" encoding="utf-8"?>
<!-- Generator: Adobe Illustrator 24.0.1, SVG Export Plug-In . SVG Version: 6.00 Build 0)  -->
<svg version="1.0" id="Capa_1" xmlns="http://www.w3.org/2000/svg" xmlns:xlink="http://www.w3.org/1999/xlink" x="0px" y="0px"
	 viewBox="0 0 810.17 515.04" style="enable-background:new 0 0 810.17 515.04;" xml:space="preserve">
<style type="text/css">
	.st0{fill:#1F3C88;}
	.st1{fill:#F58634;}
</style>
<g>
	<path class="st0" d="M0,103.56h56.4v100.18c12.98-16.7,29.68-31.91,58.24-31.91c42.66,0,67.54,28.2,67.54,73.84v128.76h-56.4
		V263.48c0-26.72-12.62-40.44-34.15-40.44c-21.5,0-35.24,13.72-35.24,40.44v110.95H0V103.56z"/>
	<path class="st1" d="M613.1,0l51.67,22.61L510.85,374.43h-61.56L613.1,0z"/>
	<path class="st0" d="M627.22,312.83c0-43.42,33.03-63.45,80.16-63.45c20.02,0,34.48,3.34,48.58,8.15v-3.34
		c0-23.37-14.46-36.35-42.66-36.35c-21.53,0-36.72,4.08-54.92,10.75l-14.1-43.04c21.92-9.65,43.42-15.96,77.21-15.96
		c30.8,0,53.05,8.17,67.15,22.27c14.83,14.84,21.53,36.73,21.53,63.45v115.4h-54.56v-21.53c-13.74,15.22-32.64,25.24-60.12,25.24
		C658.02,374.43,627.22,352.9,627.22,312.83z M756.72,300.58v-10.01c-9.63-4.45-22.25-7.43-35.99-7.43
		c-24.12,0-38.95,9.65-38.95,28.2c0,15.22,12.59,24.12,30.8,24.12C738.91,335.46,756.72,320.99,756.72,300.58z"/>
	<path class="st1" d="M341.92,167.38c-61.96,0-107.97,46.38-107.97,103.52c0,57.9,45.62,103.53,107.22,103.53
		c61.99,0,108-46.39,108-103.53C449.17,213.01,403.52,167.38,341.92,167.38z M341.56,344.17c-38.52,0-69.74-31.22-69.74-69.74H411.3
		C411.3,312.95,380.08,344.17,341.56,344.17z"/>
	<g>
		<path d="M59,484.16c0-16.97,12.8-30.88,31.13-30.88c11.26,0,17.57,4.26,23.12,9.72l-7.85,9.04c-4.61-4.18-8.53-6.65-15.35-6.65
			c-10.06,0-17.32,8.36-17.32,18.76c0,10.24,7.08,18.77,17.32,18.77c6.82,0,11-2.73,15.69-7l8.36,8.96
			c-6.14,6.57-12.97,10.15-24.48,10.15C72.05,515.04,59,501.47,59,484.16z"/>
		<path d="M137.29,484.16c0-16.97,13.39-30.88,31.82-30.88s31.64,13.73,31.64,30.88c0,16.97-13.39,30.88-31.82,30.88
			S137.29,501.3,137.29,484.16z M187.02,484.16c0-10.24-7.51-18.76-18.08-18.76c-10.58,0-17.91,8.36-17.91,18.76
			c0,10.24,7.51,18.77,18.08,18.77C179.69,502.92,187.02,494.57,187.02,484.16z"/>
		<path d="M229.48,454.3h14.16l15.69,25.25l15.7-25.25h14.16v59.71h-13.05v-38.98l-16.8,25.5H259l-16.63-25.25v38.73h-12.88V454.3z"
			/>
		<path d="M319.63,488.42V454.3h13.13v33.78c0,9.72,4.86,14.76,12.88,14.76c8.02,0,12.88-4.86,12.88-14.33V454.3h13.14V488
			c0,18.08-10.15,26.95-26.19,26.95S319.63,505.99,319.63,488.42z"/>
		<path d="M402.09,454.3h12.11l27.98,36.76V454.3h12.96v59.71h-11.17l-28.92-37.96v37.96h-12.97V454.3z"/>
		<path d="M487.12,454.3h13.13v59.71h-13.13V454.3z"/>
		<path d="M532.23,454.3h23.28c18.77,0,31.73,12.88,31.73,29.85c0,16.8-12.97,29.86-31.73,29.86h-23.28V454.3z M555.52,502.16
			c10.75,0,18-7.25,18-18c0-10.58-7.25-18-18-18h-10.15v35.99H555.52z"/>
		<path d="M632.19,453.88h12.11l25.59,60.13h-13.73l-5.46-13.39h-25.25l-5.46,13.39H606.6L632.19,453.88z M646,489.02l-7.93-19.36
			l-7.93,19.36H646z"/>
		<path d="M696.15,454.3h23.28c18.77,0,31.73,12.88,31.73,29.85c0,16.8-12.97,29.86-31.73,29.86h-23.28V454.3z M719.43,502.16
			c10.75,0,18-7.25,18-18c0-10.58-7.25-18-18-18h-10.15v35.99H719.43z"/>
	</g>
</g>
</svg>
